<svg width="72" height="72" viewBox="0 0 72 72" fill="none" xmlns="http://www.w3.org/2000/svg">
<path d="M0 8C0 3.58172 3.58172 0 8 0H64C68.4183 0 72 3.58172 72 8V64C72 68.4183 68.4183 72 64 72H8C3.58172 72 0 68.4183 0 64V8Z" fill="white"/>
<path d="M23.3563 35.3812C22.7309 35.3812 22.1786 35.3046 21.6993 35.1515C21.2201 34.9904 20.814 34.7527 20.4809 34.4384C20.156 34.1242 19.9083 33.7333 19.7377 33.266C19.5753 32.7906 19.494 32.2426 19.494 31.6222V27.7423C19.494 27.3716 19.5915 27.0936 19.7864 26.9083C19.9814 26.7149 20.2576 26.6182 20.615 26.6182C20.9805 26.6182 21.2566 26.7149 21.4435 26.9083C21.6384 27.0936 21.7359 27.3716 21.7359 27.7423V31.6464C21.7359 32.2668 21.874 32.7342 22.1501 33.0484C22.4263 33.3627 22.8284 33.5198 23.3563 33.5198C23.8762 33.5198 24.2742 33.3627 24.5504 33.0484C24.8265 32.7342 24.9646 32.2668 24.9646 31.6464V27.7423C24.9646 27.3716 25.058 27.0936 25.2449 26.9083C25.4398 26.7149 25.716 26.6182 26.0734 26.6182C26.4308 26.6182 26.7029 26.7149 26.8897 26.9083C27.0765 27.0936 27.1699 27.3716 27.1699 27.7423V31.6222C27.1699 32.4521 27.0237 33.1492 26.7313 33.7132C26.447 34.2692 26.0206 34.6882 25.452 34.9702C24.8834 35.2442 24.1849 35.3812 23.3563 35.3812Z" fill="black"/>
<path d="M47.4841 35.2482C47.1024 35.2482 46.8099 35.1515 46.6069 34.9581C46.4119 34.7567 46.3145 34.4706 46.3145 34.1V27.8753C46.3145 27.5046 46.4119 27.2226 46.6069 27.0292C46.8099 26.8277 47.1024 26.727 47.4841 26.727H51.6145C51.9069 26.727 52.1262 26.7995 52.2724 26.9446C52.4186 27.0896 52.4917 27.2991 52.4917 27.5731C52.4917 27.8551 52.4186 28.0727 52.2724 28.2258C52.1262 28.3708 51.9069 28.4433 51.6145 28.4433H48.4588V30.063H51.3464C51.6307 30.063 51.846 30.1355 51.9922 30.2805C52.1465 30.4256 52.2237 30.6391 52.2237 30.9211C52.2237 31.2032 52.1465 31.4167 51.9922 31.5617C51.846 31.7068 51.6307 31.7793 51.3464 31.7793H48.4588V33.5319H51.6145C51.9069 33.5319 52.1262 33.6085 52.2724 33.7616C52.4186 33.9066 52.4917 34.1161 52.4917 34.3901C52.4917 34.6721 52.4186 34.8856 52.2724 35.0307C52.1262 35.1757 51.9069 35.2482 51.6145 35.2482H47.4841Z" fill="black"/>
<path d="M59.0252 51.3465C60.1162 51.3465 60.9828 52.2793 60.3969 53.2018C57.8976 57.137 47.9236 61 36 61C24.0764 61 14.1024 57.137 11.6031 53.2018C11.0172 52.2793 11.8838 51.3465 12.9748 51.3465C16.7757 51.3465 25.6539 51.3466 36 51.3466C46.3461 51.3466 55.2244 51.3465 59.0252 51.3465Z" fill="#DB9339"/>
<path d="M59.0252 23.7475C60.1162 23.7475 61.0135 22.8379 60.6217 21.8172C58.5602 16.4469 48.321 11 36 11C23.6791 11 13.4399 16.4469 11.3784 21.8172C10.9866 22.8379 11.8838 23.7475 12.9748 23.7475C16.7757 23.7475 25.6539 23.7475 36 23.7475C46.3461 23.7475 55.2244 23.7475 59.0252 23.7475Z" fill="#DB9339"/>
<path fill-rule="evenodd" clip-rule="evenodd" d="M11.2924 34.9581C11.4955 35.1515 11.7879 35.2482 12.1697 35.2482H15.2644C16.1985 35.2482 16.9336 35.0347 17.4697 34.6076C18.0139 34.1725 18.286 33.5802 18.286 32.8309C18.286 32.2668 18.1236 31.8035 17.7987 31.4409C17.5464 31.1522 17.2092 30.9452 16.7871 30.8199C17.1241 30.6808 17.4003 30.4769 17.6159 30.208C17.9083 29.8535 18.0545 29.4264 18.0545 28.9268C18.0545 28.4836 17.9408 28.0969 17.7134 27.7665C17.4859 27.4361 17.1529 27.1823 16.7143 27.005C16.2838 26.8197 15.7599 26.727 15.1425 26.727H12.1697C11.7879 26.727 11.4955 26.8277 11.2924 27.0292C11.0975 27.2226 11 27.5046 11 27.8753V34.1C11 34.4706 11.0975 34.7567 11.2924 34.9581ZM16.4462 30.9332C16.566 30.9021 16.6796 30.8643 16.7871 30.8199L16.786 30.8196C16.6783 30.7877 16.565 30.7611 16.4462 30.7398V30.9332ZM14.9598 33.6165H13.1444V31.7431H14.9598C15.374 31.7431 15.6746 31.8196 15.8614 31.9727C16.0563 32.1258 16.1538 32.3595 16.1538 32.6737C16.1538 32.988 16.0563 33.2257 15.8614 33.3869C15.6746 33.54 15.374 33.6165 14.9598 33.6165ZM14.7405 30.1113H13.1444V28.3587H14.7405C15.1466 28.3587 15.4431 28.4313 15.6299 28.5763C15.8249 28.7133 15.9223 28.9308 15.9223 29.229C15.9223 29.5271 15.8249 29.7487 15.6299 29.8938C15.4431 30.0388 15.1466 30.1113 14.7405 30.1113Z" fill="black"/>
<path d="M16.4462 30.7398V30.9332C16.566 30.9021 16.6796 30.8643 16.7871 30.8199L16.786 30.8196C16.6783 30.7877 16.565 30.7611 16.4462 30.7398Z" fill="black"/>
<path fill-rule="evenodd" clip-rule="evenodd" d="M28.9615 35.0669C29.1565 35.2603 29.4327 35.357 29.7901 35.357C30.1637 35.357 30.4439 35.2603 30.6307 35.0669C30.8176 34.8655 30.911 34.5875 30.911 34.2329V32.0694H31.5811C31.776 32.0694 31.9466 32.1057 32.0928 32.1782C32.2472 32.2426 32.3731 32.3635 32.4705 32.5408L33.5793 34.5593C33.7336 34.8333 33.9082 35.0347 34.1032 35.1636C34.3062 35.2926 34.5662 35.357 34.883 35.357C35.1997 35.357 35.4394 35.2885 35.6018 35.1515C35.7724 35.0065 35.8617 34.8252 35.8699 34.6076C35.878 34.382 35.8171 34.1524 35.6871 33.9187L35.0779 32.8309C34.8992 32.4924 34.6758 32.2426 34.4078 32.0815C34.2812 32.0016 34.1455 31.9405 34.0008 31.8983C34.1633 31.853 34.3152 31.7972 34.4565 31.731C34.9114 31.5134 35.2566 31.2072 35.4921 30.8124C35.7358 30.4095 35.8577 29.9381 35.8577 29.3982C35.8577 28.5602 35.5896 27.9075 35.0535 27.4401C34.5256 26.9647 33.7742 26.727 32.7995 26.727H29.8022C29.4448 26.727 29.1646 26.8237 28.9615 27.0171C28.7666 27.2105 28.6691 27.4885 28.6691 27.8511V34.2329C28.6691 34.5875 28.7666 34.8655 28.9615 35.0669ZM32.897 31.8277H33.4818C33.6564 31.8277 33.8209 31.8488 33.9753 31.8911C33.9838 31.8935 33.9923 31.8959 34.0008 31.8983C33.6497 31.9963 33.2493 32.0452 32.7995 32.0452L32.897 31.8277ZM32.3974 30.4981H30.911V28.4313H32.3974C32.8279 28.4313 33.1569 28.5199 33.3843 28.6972C33.6118 28.8664 33.7255 29.1202 33.7255 29.4586C33.7255 29.8132 33.6118 30.0751 33.3843 30.2443C33.1569 30.4135 32.8279 30.4981 32.3974 30.4981Z" fill="black"/>
<path d="M32.897 31.8277L32.7995 32.0452C33.2493 32.0452 33.6497 31.9963 34.0008 31.8983C33.9923 31.8959 33.9838 31.8935 33.9753 31.8911C33.8209 31.8488 33.6564 31.8277 33.4818 31.8277H32.897Z" fill="black"/>
<path fill-rule="evenodd" clip-rule="evenodd" d="M39.0885 34.8373C39.7789 35.1999 40.6156 35.3812 41.5984 35.3812C42.0452 35.3812 42.4919 35.3449 42.9387 35.2724C43.3854 35.1999 43.7997 35.0992 44.1814 34.9702C44.4007 34.8977 44.5591 34.7768 44.6566 34.6076C44.7622 34.4384 44.815 34.2329 44.815 33.9912V31.32C44.815 31.038 44.7378 30.8245 44.5835 30.6794C44.4373 30.5263 44.222 30.4498 43.9377 30.4498H42.1345C41.8583 30.4498 41.6431 30.5183 41.4888 30.6552C41.3426 30.7842 41.2694 30.9735 41.2694 31.2233C41.2694 31.4731 41.3426 31.6665 41.4888 31.8035C41.6431 31.9405 41.8583 32.009 42.1345 32.009H42.9874V33.3539C42.8331 33.3907 42.6787 33.4218 42.5244 33.4473C42.2401 33.4956 41.9761 33.5198 41.7324 33.5198C40.9364 33.5198 40.3353 33.3103 39.9292 32.8913C39.5231 32.4723 39.32 31.8518 39.32 31.0299C39.32 30.482 39.4094 30.0187 39.5881 29.6399C39.7668 29.2612 40.0348 28.9752 40.3922 28.7818C40.7577 28.5884 41.2126 28.4917 41.7568 28.4917C42.0736 28.4917 42.3741 28.5239 42.6584 28.5884C42.9427 28.6448 43.2067 28.7294 43.4504 28.8422C43.6859 28.947 43.8971 28.9752 44.0839 28.9268C44.2708 28.8704 44.417 28.7657 44.5226 28.6126C44.6363 28.4514 44.7053 28.2782 44.7297 28.0928C44.7622 27.8994 44.7378 27.7181 44.6566 27.5489C44.5835 27.3716 44.4413 27.2347 44.2301 27.138C43.824 26.9285 43.4098 26.7874 42.9874 26.7149C42.565 26.6343 42.1508 26.5941 41.7446 26.5941C40.9973 26.5941 40.3272 26.6988 39.7343 26.9083C39.1494 27.1098 38.654 27.4079 38.2478 27.8027C37.8417 28.1895 37.529 28.6569 37.3097 29.2048C37.0985 29.7447 36.9929 30.3531 36.9929 31.0299C36.9929 31.9002 37.1716 32.6616 37.529 33.3143C37.8864 33.967 38.4062 34.4747 39.0885 34.8373ZM42.9874 34.0758V33.3539C43.1255 33.321 43.2636 33.2837 43.4016 33.2418L42.9874 34.0758Z" fill="black"/>
<path d="M42.9874 34.0758L43.4016 33.2418C43.2636 33.2837 43.1255 33.321 42.9874 33.3539V34.0758Z" fill="black"/>
<path fill-rule="evenodd" clip-rule="evenodd" d="M54.091 35.0669C54.2859 35.2603 54.5621 35.357 54.9195 35.357C55.2931 35.357 55.5734 35.2603 55.7602 35.0669C55.947 34.8655 56.0404 34.5875 56.0404 34.2329V32.0694H56.7105C56.9055 32.0694 57.0761 32.1057 57.2223 32.1782C57.3766 32.2426 57.5025 32.3635 57.6 32.5408L58.7087 34.5593C58.863 34.8333 59.0377 35.0347 59.2326 35.1636C59.4357 35.2926 59.6956 35.357 60.0124 35.357C60.3292 35.357 60.5688 35.2885 60.7312 35.1515C60.9018 35.0065 60.9912 34.8252 60.9993 34.6076C61.0074 34.382 60.9465 34.1524 60.8165 33.9187L60.2073 32.8309C60.0286 32.4924 59.8053 32.2426 59.5372 32.0815C59.4106 32.0016 59.275 31.9405 59.1303 31.8983C59.2927 31.853 59.4446 31.7972 59.5859 31.731C60.0408 31.5134 60.386 31.2072 60.6216 30.8124C60.8653 30.4095 60.9871 29.9381 60.9871 29.3982C60.9871 28.5602 60.7191 27.9075 60.183 27.4401C59.655 26.9647 58.9036 26.727 57.9289 26.727H54.9317C54.5743 26.727 54.294 26.8237 54.091 27.0171C53.896 27.2105 53.7986 27.4885 53.7986 27.8511V34.2329C53.7986 34.5875 53.896 34.8655 54.091 35.0669ZM58.0264 31.8277H58.6112C58.7859 31.8277 58.9504 31.8488 59.1047 31.8911C59.1132 31.8935 59.1218 31.8959 59.1303 31.8983C58.7792 31.9963 58.3787 32.0452 57.9289 32.0452L58.0264 31.8277ZM57.5269 30.4981H56.0404V28.4313H57.5269C57.9574 28.4313 58.2863 28.5199 58.5138 28.6972C58.7412 28.8664 58.8549 29.1202 58.8549 29.4586C58.8549 29.8132 58.7412 30.0751 58.5138 30.2443C58.2863 30.4135 57.9574 30.4981 57.5269 30.4981Z" fill="black"/>
<path d="M58.0264 31.8277L57.9289 32.0452C58.3787 32.0452 58.7792 31.9963 59.1303 31.8983C59.1218 31.8959 59.1132 31.8935 59.1047 31.8911C58.9504 31.8488 58.7859 31.8277 58.6112 31.8277H58.0264Z" fill="black"/>
<path d="M11.3402 48.159C11.567 48.3863 11.8883 48.5 12.304 48.5C12.7387 48.5 13.0647 48.3863 13.2821 48.159C13.4994 47.9222 13.6081 47.5954 13.6081 47.1787V43.854H13.6364L17.095 47.7328C17.3217 47.9885 17.5296 48.1827 17.7186 48.3153C17.9171 48.4384 18.1769 48.5 18.4982 48.5C18.8762 48.5 19.1597 48.4053 19.3487 48.2158C19.5471 48.0264 19.6463 47.7896 19.6463 47.5055C19.6463 47.2118 19.5235 46.9277 19.2778 46.653L16.1625 43.1246L15.6775 43.6409V42.5753L16.1625 43.1246L19.1077 39.9895C19.3156 39.7622 19.4243 39.5159 19.4337 39.2507C19.4526 38.976 19.3723 38.7392 19.1928 38.5403C19.0227 38.3319 18.7392 38.2277 18.3423 38.2277C18.0872 38.2277 17.8556 38.2846 17.6478 38.3982C17.4493 38.5024 17.2603 38.6492 17.0808 38.8387L13.6364 42.6464H13.6081V39.5491C13.6081 39.1133 13.4947 38.7866 13.2679 38.5687C13.0506 38.3414 12.7293 38.2277 12.304 38.2277C11.8883 38.2277 11.567 38.3414 11.3402 38.5687C11.1134 38.7866 11 39.1133 11 39.5491V47.1787C11 47.5954 11.1134 47.9222 11.3402 48.159Z" fill="#0000FF"/>
<path d="M22.4516 48.3721C22.0075 48.3721 21.6673 48.2585 21.4311 48.0311C21.2043 47.7943 21.0909 47.4581 21.0909 47.0224V39.7053C21.0909 39.2696 21.2043 38.9381 21.4311 38.7108C21.6673 38.474 22.0075 38.3556 22.4516 38.3556H27.2567C27.5969 38.3556 27.852 38.4408 28.0221 38.6113C28.1922 38.7818 28.2773 39.0281 28.2773 39.3501C28.2773 39.6817 28.1922 39.9374 28.0221 40.1174C27.852 40.2879 27.5969 40.3731 27.2567 40.3731H23.5856V42.277H26.9449C27.2756 42.277 27.526 42.3622 27.6961 42.5327C27.8757 42.7032 27.9654 42.9542 27.9654 43.2857C27.9654 43.6172 27.8757 43.8682 27.6961 44.0387C27.526 44.2092 27.2756 44.2945 26.9449 44.2945H23.5856V46.3546H27.2567C27.5969 46.3546 27.852 46.4446 28.0221 46.6246C28.1922 46.7951 28.2773 47.0413 28.2773 47.3634C28.2773 47.6949 28.1922 47.9459 28.0221 48.1164C27.852 48.2869 27.5969 48.3721 27.2567 48.3721H22.4516Z" fill="#0000FF"/>
<path d="M30.1094 48.1874C30.3173 48.3958 30.6197 48.5 31.0166 48.5C31.4134 48.5 31.7111 48.3958 31.9095 48.1874C32.1174 47.979 32.2214 47.6712 32.2214 47.2639V42.6189L31.8245 42.1207H32.2214V42.6189L36.3178 47.7612C36.5256 48.0169 36.7194 48.2064 36.8989 48.3295C37.0879 48.4432 37.343 48.5 37.6643 48.5C37.9856 48.5 38.2407 48.3958 38.4297 48.1874C38.6187 47.9696 38.7132 47.6807 38.7132 47.3207V39.4496C38.7132 39.0518 38.6093 38.7487 38.4014 38.5403C38.2029 38.3319 37.9053 38.2277 37.5084 38.2277C37.1115 38.2277 36.8091 38.3319 36.6012 38.5403C36.4028 38.7487 36.3036 39.0518 36.3036 39.4496V44.0959L36.7005 44.5928H36.3036V44.0959L32.2072 38.9665C31.9993 38.7013 31.8103 38.5119 31.6402 38.3982C31.4701 38.2846 31.2339 38.2277 30.9315 38.2277C30.5913 38.2277 30.3173 38.3414 30.1094 38.5687C29.9015 38.7866 29.7976 39.1039 29.7976 39.5206V47.2639C29.7976 47.6712 29.9015 47.979 30.1094 48.1874Z" fill="#0000FF"/>
<path d="M40.6383 48.159C40.8556 48.3011 41.1296 48.3721 41.4604 48.3721H47.2151C47.5742 48.3721 47.8483 48.2821 48.0373 48.1022C48.2357 47.9127 48.3349 47.6428 48.3349 47.2923C48.3349 46.9419 48.2357 46.6767 48.0373 46.4967C47.8483 46.3167 47.5742 46.2267 47.2151 46.2267H43.2666L42.6794 46.9655V46.2267H43.2666L47.5695 40.8136C47.8057 40.5199 47.9617 40.2263 48.0373 39.9327C48.1129 39.639 48.1129 39.3738 48.0373 39.137C47.9617 38.9002 47.8152 38.7108 47.5979 38.5687C47.39 38.4266 47.1207 38.3556 46.7899 38.3556H41.2619C40.8934 38.3556 40.6146 38.4456 40.4257 38.6255C40.2367 38.8055 40.1422 39.0707 40.1422 39.4212C40.1422 39.7716 40.2367 40.0416 40.4257 40.231C40.6146 40.411 40.8934 40.501 41.2619 40.501H44.9837L45.5709 39.7622V40.501H44.9837L40.6808 45.9142C40.4446 46.2078 40.2886 46.5014 40.213 46.7951C40.1374 47.0792 40.1374 47.3444 40.213 47.5907C40.2886 47.8275 40.4304 48.0169 40.6383 48.159Z" fill="#0000FF"/>
<path d="M50.702 48.5C50.2862 48.5 49.965 48.3863 49.7382 48.159C49.5114 47.9222 49.398 47.5907 49.398 47.1645V39.5633C49.398 39.1276 49.5114 38.796 49.7382 38.5687C49.965 38.3414 50.2862 38.2277 50.702 38.2277C51.1273 38.2277 51.4485 38.3414 51.6659 38.5687C51.8927 38.796 52.0061 39.1276 52.0061 39.5633V47.1645C52.0061 47.5907 51.8974 47.9222 51.6801 48.159C51.4627 48.3863 51.1367 48.5 50.702 48.5Z" fill="#0000FF"/>
<path d="M55.1744 48.3721C54.7302 48.3721 54.39 48.2585 54.1538 48.0311C53.927 47.7943 53.8136 47.4581 53.8136 47.0224V39.7053C53.8136 39.2696 53.927 38.9381 54.1538 38.7108C54.39 38.474 54.7302 38.3556 55.1744 38.3556H59.9795C60.3196 38.3556 60.5748 38.4408 60.7449 38.6113C60.9149 38.7818 61 39.0281 61 39.3501C61 39.6817 60.9149 39.9374 60.7449 40.1174C60.5748 40.2879 60.3196 40.3731 59.9795 40.3731H56.3083V42.277H59.6676C59.9983 42.277 60.2488 42.3622 60.4188 42.5327C60.5984 42.7032 60.6882 42.9542 60.6882 43.2857C60.6882 43.6172 60.5984 43.8682 60.4188 44.0387C60.2488 44.2092 59.9983 44.2945 59.6676 44.2945H56.3083V46.3546H59.9795C60.3196 46.3546 60.5748 46.4446 60.7449 46.6246C60.9149 46.7951 61 47.0413 61 47.3634C61 47.6949 60.9149 47.9459 60.7449 48.1164C60.5748 48.2869 60.3196 48.3721 59.9795 48.3721H55.1744Z" fill="#0000FF"/>
<path d="M15.6775 42.5753V43.6409L16.1625 43.1246L15.6775 42.5753Z" fill="#0000FF"/>
<path d="M32.2214 42.1207H31.8245L32.2214 42.6189V42.1207Z" fill="#0000FF"/>
<path d="M36.3036 44.5928H36.7005L36.3036 44.0959V44.5928Z" fill="#0000FF"/>
<path d="M45.5709 40.501V39.7622L44.9837 40.501H45.5709Z" fill="#0000FF"/>
<path d="M42.6794 46.2267V46.9655L43.2666 46.2267H42.6794Z" fill="#0000FF"/>
</svg>
